<svg viewBox="0 0 684 145" fill="none" xmlns="http://www.w3.org/2000/svg">
<g clip-path="url(#clip0_3429_5868)">
<path d="M-1 128.47L121.259 128.5L83.103 61.7857L91.9445 46.3672L147.514 143.228L7.43829 143.175L-1 128.47Z" fill="url(#paint0_linear_3429_5868)"/>
<path d="M-1 128.47L121.259 128.5L83.103 61.7857L91.9445 46.3672L147.514 143.228L7.43829 143.175L-1 128.47Z" fill="url(#paint1_linear_3429_5868)"/>
<path d="M84.5596 1.50781L24.0022 107H101.523L110.131 122H-1L66.668 1.50781H84.5596Z" fill="url(#paint2_linear_3429_5868)"/>
<path d="M154.842 142.992L91.9948 33.4896L53.3102 101L34.8627 101.004L91.9585 1.51259L164.004 127.051L154.842 142.992Z" fill="url(#paint3_linear_3429_5868)"/>
<path d="M232.392 116H216.204C208.631 116 202.619 114.154 198.17 110.462C193.815 106.77 191.638 100.664 191.638 92.144V29.948H206.832V91.292C206.832 95.6467 207.873 98.5813 209.956 100.096C212.039 101.516 215.257 102.226 219.612 102.226H232.392V116ZM232.392 58.206H179.71V45.426H232.392V58.206ZM257.321 116H241.985V45.426H256.043V65.448L257.321 66.158V116ZM257.321 76.382H253.913V64.454H257.037C257.699 60.5727 259.025 57.1173 261.013 54.088C263.001 50.964 265.651 48.5027 268.965 46.704C272.373 44.9053 276.491 44.006 281.319 44.006C286.715 44.006 291.117 45.142 294.525 47.414C297.933 49.686 300.394 52.7153 301.909 56.502C303.518 60.2887 304.323 64.4067 304.323 68.856V78.086H289.129V71.838C289.129 66.726 287.993 62.9867 285.721 60.62C283.449 58.2533 279.662 57.07 274.361 57.07C268.302 57.07 263.947 58.7267 261.297 62.04C258.646 65.3533 257.321 70.134 257.321 76.382ZM329.291 116H313.955V45.426H329.291V116ZM329.291 37.19H313.955V20.86H329.291V37.19ZM364.225 116H348.889V49.26C348.889 43.296 350.167 38.2313 352.723 34.066C355.373 29.806 359.207 26.54 364.225 24.268C369.242 21.996 375.348 20.86 382.543 20.86H389.501V32.22H380.129C374.07 32.22 369.668 33.356 366.923 35.628C364.177 37.8053 363.278 41.9707 364.225 48.124V50.964V116ZM389.501 58.206H338.239V45.426H389.501V58.206ZM434.059 117.42C426.296 117.42 419.433 115.905 413.469 112.876C407.599 109.752 403.008 105.445 399.695 99.954C396.476 94.3687 394.867 87.9787 394.867 80.784C394.867 73.4 396.476 66.9627 399.695 61.472C403.008 55.9813 407.599 51.7213 413.469 48.692C419.433 45.568 426.296 44.006 434.059 44.006C442.011 44.006 448.921 45.568 454.791 48.692C460.66 51.7213 465.204 55.9813 468.423 61.472C471.736 66.9627 473.393 73.4 473.393 80.784C473.393 87.9787 471.736 94.3687 468.423 99.954C465.204 105.445 460.66 109.752 454.791 112.876C448.921 115.905 442.011 117.42 434.059 117.42ZM434.059 103.788C442.673 103.788 448.874 101.847 452.661 97.966C456.447 93.99 458.341 88.2627 458.341 80.784C458.341 73.3053 456.447 67.578 452.661 63.602C448.874 59.5313 442.673 57.496 434.059 57.496C425.539 57.496 419.385 59.5313 415.599 63.602C411.812 67.578 409.919 73.3053 409.919 80.784C409.919 88.2627 411.812 93.99 415.599 97.966C419.385 101.847 425.539 103.788 434.059 103.788ZM499.858 116H484.522V45.426H498.58V65.448L499.858 66.158V116ZM499.858 76.382H496.45V64.454H499.574C500.237 60.5727 501.562 57.1173 503.55 54.088C505.538 50.964 508.189 48.5027 511.502 46.704C514.91 44.9053 519.028 44.006 523.856 44.006C529.252 44.006 533.654 45.142 537.062 47.414C540.47 49.686 542.931 52.7153 544.446 56.502C546.055 60.2887 546.86 64.4067 546.86 68.856V78.086H531.666V71.838C531.666 66.726 530.53 62.9867 528.258 60.62C525.986 58.2533 522.199 57.07 516.898 57.07C510.839 57.07 506.485 58.7267 503.834 62.04C501.183 65.3533 499.858 70.134 499.858 76.382ZM681.311 116H666.117V77.66C666.117 70.6547 664.649 65.59 661.715 62.466C658.78 59.342 653.857 57.78 646.947 57.78C639.468 57.78 634.167 59.7207 631.043 63.602C628.013 67.3887 626.499 73.2107 626.499 81.068L623.801 81.21L622.949 67.294H626.073C626.735 63.2233 628.108 59.4367 630.191 55.934C632.273 52.4313 635.255 49.5913 639.137 47.414C643.018 45.142 647.893 44.006 653.763 44.006C659.916 44.006 665.028 45.284 669.099 47.84C673.169 50.396 676.199 53.8987 678.187 58.348C680.269 62.7973 681.311 67.862 681.311 73.542V116ZM571.829 116H556.493V45.426H570.551V67.578L571.829 68.288V116ZM626.499 116H611.305V77.66C611.305 70.6547 609.837 65.59 606.903 62.466C603.968 59.342 599.093 57.78 592.277 57.78C584.703 57.78 579.402 59.7207 576.373 63.602C573.343 67.3887 571.829 73.2107 571.829 81.068L569.131 81.21L568.421 66.726H571.403C572.065 62.75 573.391 59.058 575.379 55.65C577.367 52.242 580.254 49.4493 584.041 47.272C587.827 45.0947 592.655 44.006 598.525 44.006C604.678 44.006 609.743 45.3313 613.719 47.982C617.695 50.538 620.677 54.0407 622.665 58.49C624.653 62.9393 625.647 67.9567 625.647 73.542H626.499V116Z" fill="#18181B"/>
</g>
<defs>
<linearGradient id="paint0_linear_3429_5868" x1="4.80482" y1="95.8901" x2="141.566" y2="97.9254" gradientUnits="userSpaceOnUse">
<stop stop-color="#71C9EC"/>
<stop offset="1" stop-color="#833FB4"/>
</linearGradient>
<linearGradient id="paint1_linear_3429_5868" x1="4.80482" y1="95.8901" x2="141.566" y2="97.9254" gradientUnits="userSpaceOnUse">
<stop stop-color="#71C9EC"/>
<stop offset="1" stop-color="#833FB4"/>
</linearGradient>
<linearGradient id="paint2_linear_3429_5868" x1="108.208" y1="23.11" x2="45.2428" y2="137.96" gradientUnits="userSpaceOnUse">
<stop stop-color="#71C9EC"/>
<stop offset="1" stop-color="#833FB4"/>
</linearGradient>
<linearGradient id="paint3_linear_3429_5868" x1="121.941" y1="155.03" x2="57.5716" y2="35.034" gradientUnits="userSpaceOnUse">
<stop stop-color="#71C9EC"/>
<stop offset="1" stop-color="#833FB4"/>
</linearGradient>
<clipPath id="clip0_3429_5868">
<rect width="684" height="145" fill="white"/>
</clipPath>
</defs>
</svg>
