<?xml version="1.0" encoding="UTF-8"?>
<svg id="Layer_1" data-name="Layer 1" xmlns="http://www.w3.org/2000/svg" viewBox="0 0 660.12 145.44">
  <defs>
    <style>
      .cls-1 {
        fill: #f5f5f5;
      }
    </style>
  </defs>
  <g>
    <path class="cls-1" d="m175.28,53.31l31.29-31.29v16.61h23.6v14.68h-23.6v36.01c0,4.08.67,7.46,2.01,10.14,1.34,2.68,3.29,4.57,5.86,5.68,2.56,1.11,4.98,1.84,7.25,2.19,2.27.35,5.1.52,8.48.52v14.68c-13.4,0-23.31-2.56-29.72-7.69-6.41-5.13-9.61-13.63-9.61-25.52v-36.01h-15.56Z"/>
    <path class="cls-1" d="m239.99,122.54v-47.72c0-13.4,2.5-22.66,7.52-27.79,2.45-2.56,5.42-4.48,8.92-5.77,3.5-1.28,6.55-2.04,9.18-2.27,2.62-.23,6.21-.35,10.75-.35h15.38v14.68h-18.53c-2.33,0-4.14.06-5.42.17-1.28.12-2.8.52-4.54,1.22-1.75.7-3.26,1.81-4.54,3.32-2.22,2.8-3.32,8.39-3.32,16.78v47.72h-15.38Z"/>
    <path class="cls-1" d="m327.04,122.54h-15.38V53.31h-14.33l6.99-14.68h22.72v83.9Zm-16.08-101.38c-1.52-1.98-2.27-4.14-2.27-6.47s.76-4.46,2.27-6.38c1.51-1.92,3.85-2.88,6.99-2.88s5.48.96,6.99,2.88c1.51,1.92,2.27,4.05,2.27,6.38s-.76,4.46-2.27,6.38c-1.52,1.92-3.84,2.88-6.99,2.88s-5.48-.93-6.99-2.8Z"/>
    <path class="cls-1" d="m386.58,53.31h-20.1v69.22h-15.73V53.31h-11.89l6.99-14.68h4.89c0-11.89,4.02-21.3,12.06-28.23,8.04-6.93,18.29-10.4,30.76-10.4v14.68c-18.06,0-27.09,7.98-27.09,23.95h20.1v14.68Z"/>
    <path class="cls-1" d="m403.71,49.64c8.16-8.51,18.35-12.76,30.59-12.76,5.94,0,11.51,1.14,16.69,3.41,5.18,2.27,9.73,5.39,13.63,9.35,3.9,3.96,6.96,8.6,9.18,13.9,2.21,5.3,3.32,10.99,3.32,17.04s-1.08,11.74-3.23,17.04c-2.16,5.3-5.16,9.94-9,13.9-3.85,3.96-8.39,7.08-13.63,9.35-5.24,2.27-10.9,3.41-16.96,3.41s-11.86-1.14-17.04-3.41c-5.19-2.27-9.7-5.39-13.55-9.35-3.85-3.96-6.85-8.59-9-13.9-2.16-5.3-3.23-10.98-3.23-17.04,0-12.35,4.08-22.66,12.24-30.94Zm30.59,1.92c-8.16,0-14.71,2.68-19.67,8.04-4.95,5.36-7.43,12.35-7.43,20.98s2.47,15.62,7.43,20.98c4.95,5.36,11.51,8.04,19.67,8.04s14.86-2.71,19.75-8.13c4.89-5.42,7.34-12.38,7.34-20.89s-2.45-15.47-7.34-20.89c-4.89-5.42-11.48-8.13-19.75-8.13Z"/>
    <path class="cls-1" d="m490.16,122.54v-47.72c0-13.4,2.5-22.66,7.52-27.79,2.45-2.56,5.42-4.48,8.91-5.77,3.5-1.28,6.55-2.04,9.18-2.27,2.62-.23,6.21-.35,10.75-.35h15.38v14.68h-18.53c-2.33,0-4.14.06-5.42.17-1.28.12-2.8.52-4.55,1.22-1.75.7-3.26,1.81-4.54,3.32-2.22,2.8-3.32,8.39-3.32,16.78v47.72h-15.38Z"/>
    <path class="cls-1" d="m551.05,38.63h77.09c8.27,0,14.86,1.57,19.75,4.72,5.01,3.15,8.3,7.23,9.88,12.24,1.57,5.01,2.36,11.01,2.36,18v48.94h-15.38v-48.94c0-9.09-2.74-15.09-8.22-18-2.8-1.51-8.45-2.27-16.96-2.27h-7.17v69.22h-15.38V53.31h-30.59v69.22h-15.38V38.63Z"/>
  </g>
  <g>
    <polygon class="cls-1" points="90.14 53.85 85.52 61.82 113.67 112.15 123.89 129.92 .5 129.47 10.88 145.44 149.42 144.29 93.84 47.73 90.14 53.85"/>
    <polygon class="cls-1" points="111.42 122.57 107.42 115.42 103.2 108.05 48.32 107.25 24.71 107.21 86.82 .06 67.8 1.06 0 122.43 111.42 122.57"/>
    <polygon class="cls-1" points="49.23 100.24 53.97 100.24 83.97 50.48 94.13 32.96 155.31 140.35 163.93 123.41 93.15 3.17 37.25 100.06 49.23 100.24"/>
  </g>
</svg>